# xmcd
#
# Track frame offsets: 
#        150
#        13779
#        27159
#        39462
#        51653
#        63807
#        76416
#        89369
#        103026
#        113223
#        123995
#        139028
#        152306
#        165097
#
# Disc length: 2390 seconds
#
# Revision: 0
# Processed by: cddbd v1.5.2PL0 Copyright (c) Steve Scherf et al.
# Submitted via: ExactAudioCopy v0.95b4
#
DISCID=a609540e
DTITLE=TONICO and TINOCO - Recordação Sertaneja
DYEAR=1972
DGENRE=Country
TTITLE0=Exemplo Da Fé
TTITLE1=Camisa Preta
TTITLE2=Lar Feliz
TTITLE3=Ai Meu Bem
TTITLE4=Morte Da Caboclinha
TTITLE5=Filho De Carpinteiro
TTITLE6=Mãe Sempre Mãe
TTITLE7=Canoeiro
TTITLE8=Adeus Bela
TTITLE9=Você Sabe Onde Moro
TTITLE10=Sertão Do Laranjinha
TTITLE11=Tempo De Amor
TTITLE12=A Marca Da Ferradura
TTITLE13=Besta Ruana
EXTD=
EXTT0=
EXTT1=
EXTT2=
EXTT3=
EXTT4=
EXTT5=
EXTT6=
EXTT7=
EXTT8=
EXTT9=
EXTT10=
EXTT11=
EXTT12=
EXTT13=
PLAYORDER=
